HIERARCHY
ROOT SpineBase
{
  OFFSET 0.000000 0.000000 0.000000
  CHANNELS 6 Xposition Yposition Zposition Zrotation Xrotation Yrotation
  JOINT SpineMid
  {
    OFFSET -0.000000 31.738398 0.000000
    CHANNELS 3 Zrotation Xrotation Yrotation
    JOINT SpineShoulder
    {
      OFFSET 0.287055 23.575992 -0.833703
      CHANNELS 3 Zrotation Xrotation Yrotation
      JOINT Neck
      {
        OFFSET 0.204643 7.798840 -0.612078
        CHANNELS 3 Zrotation Xrotation Yrotation
        JOINT Head
        {
          OFFSET 2.372854 12.831813 3.646102
          CHANNELS 3 Zrotation Xrotation Yrotation
          End Site
          {
            OFFSET 0 0 0
          }
        }
      }
      JOINT ShoulderLeft
      {
        OFFSET -7.396954 -3.012519 -13.270684
        CHANNELS 3 Zrotation Xrotation Yrotation
        JOINT ElbowLeft
        {
          OFFSET -4.871387 -26.020101 -9.176272
          CHANNELS 3 Zrotation Xrotation Yrotation
          JOINT WristLeft
          {
            OFFSET 3.358620 -23.570917 -5.066002
            CHANNELS 3 Zrotation Xrotation Yrotation
            JOINT HandLeft
            {
              OFFSET 1.508330 -8.240882 2.664825
              CHANNELS 3 Zrotation Xrotation Yrotation
              JOINT HandTipLeft
              {
                OFFSET 0.834932 -7.572396 -0.277872
                CHANNELS 3 Zrotation Xrotation Yrotation
                End Site
                {
                  OFFSET 0 0 0
                }
              }
              JOINT ThumbLeft
              {
                OFFSET 2.700499 0.953586 6.275904
                CHANNELS 3 Zrotation Xrotation Yrotation
                End Site
                {
                  OFFSET 0 0 0
                }
              }
            }
          }
        }
      }
      JOINT ShoulderRight
      {
        OFFSET 9.103325 -4.882938 13.799319
        CHANNELS 3 Zrotation Xrotation Yrotation
        JOINT ElbowRight
        {
          OFFSET -0.071356 -29.875358 11.583717
          CHANNELS 3 Zrotation Xrotation Yrotation
          JOINT WristRight
          {
            OFFSET 3.628278 -24.367683 1.638013
            CHANNELS 3 Zrotation Xrotation Yrotation
            JOINT HandRight
            {
              OFFSET 3.182205 -4.285862 0.787944
              CHANNELS 3 Zrotation Xrotation Yrotation
              JOINT HandTipRight
              {
                OFFSET -0.664069 -5.577022 -1.391853
                CHANNELS 3 Zrotation Xrotation Yrotation
                End Site
                {
                  OFFSET 0 0 0
                }
              }
              JOINT ThumbRight
              {
                OFFSET -3.027732 -1.820086 -2.671377
                CHANNELS 3 Zrotation Xrotation Yrotation
                End Site
                {
                  OFFSET 0 0 0
                }
              }
            }
          }
        }
      }
    }
  }
  JOINT HipLeft
  {
    OFFSET -3.102259 2.077479 -9.164541
    CHANNELS 3 Zrotation Xrotation Yrotation
    JOINT KneeLeft
    {
      OFFSET -9.216029 -35.963166 -1.147655
      CHANNELS 3 Zrotation Xrotation Yrotation
      JOINT AnkleLeft
      {
        OFFSET -9.020495 -36.522779 7.031299
        CHANNELS 3 Zrotation Xrotation Yrotation
        JOINT FootLeft
        {
          OFFSET 2.787810 -6.125543 -3.800016
          CHANNELS 3 Zrotation Xrotation Yrotation
          End Site
          {
            OFFSET 0 0 0
          }
        }
      }
    }
  }
  JOINT HipRight
  {
    OFFSET 5.407248 -0.125993 2.443487
    CHANNELS 3 Zrotation Xrotation Yrotation
    JOINT KneeRight
    {
      OFFSET -0.568676 -38.677153 2.096985
      CHANNELS 3 Zrotation Xrotation Yrotation
      JOINT AnkleRight
      {
        OFFSET -0.843868 -34.012948 3.889521
        CHANNELS 3 Zrotation Xrotation Yrotation
        JOINT FootRight
        {
          OFFSET 5.981821 -4.685190 -4.554394
          CHANNELS 3 Zrotation Xrotation Yrotation
          End Site
          {
            OFFSET 0 0 0
          }
        }
      }
    }
  }
}
MOTION
Frames: 5
Frame Time: 0.033333
-96.078897 79.014871 293.427582 -4.700361 5.264272 -40.935982 -0.191904 0.199541 40.928903 0.031701 0.149516 -0.275968 0.471980 -3.325346 1.172222 0.000000 0.000000 0.000000 -3.807232 -5.922902 2.894064 -1.221169 4.388059 0.106530 9.476429 2.031865 -1.306066 -9.617014 -2.003355 -0.923550 0.000000 0.000000 0.000000 0.000000 0.000000 0.000000 22.895902 26.276574 5.183698 58.173764 15.292989 12.445015 -12.155791 4.959077 19.768537 2.468660 -16.108932 -54.845440 0.000000 0.000000 0.000000 0.000000 0.000000 0.000000 1.733458 1.906479 39.902160 1.070908 -6.911557 1.434800 1.047561 9.911683 3.734385 0.000000 0.000000 0.000000 6.467166 5.076030 41.346140 -10.491556 -6.926510 -1.713523 14.036164 22.235895 14.099265 0.000000 0.000000 0.000000
-95.739961 78.969043 293.424423 -4.437557 5.303096 -40.814716 -0.220680 0.116067 40.797645 0.138056 0.116789 -0.255108 0.363170 -3.236988 1.090285 0.000000 0.000000 0.000000 -3.924918 -5.684324 2.792537 -0.652050 4.012524 -0.042526 11.104995 4.496680 0.048952 -10.524415 -2.961293 -2.364418 0.000000 0.000000 0.000000 0.000000 0.000000 0.000000 22.881377 27.192516 5.040093 62.183859 15.492451 14.260556 -13.425065 5.938998 18.807739 1.294423 -16.362785 -56.035632 0.000000 0.000000 0.000000 0.000000 0.000000 0.000000 1.471660 1.629346 39.761885 0.965833 -6.916843 1.370359 3.484004 12.309639 3.198748 0.000000 0.000000 0.000000 6.317053 4.812200 41.222227 -10.873196 -6.777803 -1.788603 14.389740 22.232778 14.260952 0.000000 0.000000 0.000000
-95.465003 78.922323 293.415225 -4.180732 5.314755 -40.883381 -0.231143 0.042346 40.857338 0.295025 0.080851 -0.226709 0.478449 -3.230017 0.958938 0.000000 0.000000 0.000000 -4.009655 -5.338135 2.651321 -0.020035 3.512812 -0.194135 11.905541 6.200879 1.006177 -11.245111 -3.238034 -3.313404 0.000000 0.000000 0.000000 0.000000 0.000000 0.000000 23.159906 27.637166 5.031944 66.771262 16.225076 15.397840 -14.182666 5.904605 18.096732 3.401010 -13.888162 -60.581177 0.000000 0.000000 0.000000 0.000000 0.000000 0.000000 1.113231 1.348470 39.804708 1.049285 -7.010147 1.360628 4.773454 13.587424 2.851689 0.000000 0.000000 0.000000 6.147370 4.556112 41.284116 -11.198111 -6.607088 -1.847835 14.762405 22.187747 14.312151 0.000000 0.000000 0.000000
-95.223937 78.874416 293.438405 -3.852655 5.279075 -41.125948 -0.075862 0.072860 41.104537 0.489367 0.021936 -0.181398 0.086731 -3.126955 0.830477 0.000000 0.000000 0.000000 -4.305689 -4.997221 2.467852 0.646736 3.327117 -0.303444 11.816022 7.173861 1.629921 -10.528213 -1.725339 -3.493227 0.000000 0.000000 0.000000 0.000000 0.000000 0.000000 24.026802 27.587703 5.233005 71.690139 17.710658 15.051404 -15.582380 4.523507 17.709713 8.566291 -8.778109 -69.877745 0.000000 0.000000 0.000000 0.000000 0.000000 0.000000 0.837786 1.036101 40.041408 0.931409 -6.921658 1.279310 5.540775 13.985163 2.628058 0.000000 0.000000 0.000000 5.788131 4.328203 41.511862 -11.362788 -6.546222 -1.891525 15.077621 22.147861 14.283452 0.000000 0.000000 0.000000
-95.040943 78.833992 293.477871 -3.503547 5.194151 -41.572060 0.217479 0.196449 41.567139 0.653156 -0.032208 -0.130928 -0.856252 -2.796248 0.741372 0.000000 0.000000 0.000000 -4.590652 -4.655355 2.234816 1.290368 3.310109 -0.375841 10.849658 7.787337 2.008943 -9.000402 -1.119233 -3.468749 0.000000 0.000000 0.000000 0.000000 0.000000 0.000000 25.640312 27.125837 5.681376 75.648817 18.764762 13.494795 -15.972545 3.324804 18.060244 15.547171 -5.603494 -82.216004 0.000000 0.000000 0.000000 0.000000 0.000000 0.000000 0.508121 0.700480 40.485517 0.958189 -6.801286 1.224708 5.436551 13.904632 2.740531 0.000000 0.000000 0.000000 5.288071 4.155103 41.935886 -11.391286 -6.603295 -1.924268 15.382397 22.097572 14.109317 0.000000 0.000000 0.000000
